<svg width="116" height="23" viewBox="0 0 116 23" fill="none" xmlns="http://www.w3.org/2000/svg">
<path d="M0.611328 22V0.789062H9.37109C14.1172 0.789062 16.5781 2.95703 16.5781 6.17969C16.5781 8.61133 14.9375 10.2812 12.623 10.75V10.9551C15.1719 11.0723 17.3984 13.0059 17.3984 16.082C17.3984 19.5098 14.7324 22 10.0449 22H0.611328ZM8.87305 17.957C11.1582 17.957 12.1836 17.0488 12.1836 15.5254C12.1836 13.8555 10.9531 12.8008 8.96094 12.8008H5.5918V17.957H8.87305ZM8.55078 9.54883C10.25 9.54883 11.4805 8.64062 11.4805 7.11719C11.4805 5.68164 10.3965 4.77344 8.60938 4.77344H5.5918V9.54883H8.55078ZM31.3145 7.08789C31.1973 5.53516 30.0547 4.62695 28.0039 4.62695C25.9824 4.62695 24.957 5.50586 24.9277 6.70703C24.8984 8.02539 26.1875 8.66992 28.0918 9.08008L29.9375 9.51953C34.0098 10.4277 36.3828 12.4492 36.4121 15.8477C36.3828 19.8613 33.2773 22.293 28.0039 22.293C22.7305 22.293 19.3027 19.8906 19.2148 15.0273H24.0195C24.1367 17.0781 25.6602 18.1328 27.9453 18.1328C30.0547 18.1328 31.3145 17.1953 31.3438 15.8477C31.3145 14.6172 30.2305 13.9727 27.8867 13.4453L25.6602 12.918C21.998 12.0684 19.7715 10.252 19.7715 7.05859C19.7422 3.13281 23.2285 0.496094 28.0332 0.496094C32.9258 0.496094 36.0605 3.16211 36.1191 7.08789H31.3145ZM38.9902 0.789062H45.1719L50.6504 14.1484H50.8848L56.3633 0.789062H62.5449V22H57.6816V8.81641H57.5059L52.3496 21.8828H49.1855L44.0293 8.75781H43.8535V22H38.9902V0.789062ZM68.5215 22.293C67.0566 22.293 65.8555 21.1211 65.8848 19.627C65.8555 18.1914 67.0566 17.0195 68.5215 17.0195C69.9277 17.0195 71.1582 18.1914 71.1875 19.627C71.1582 21.1211 69.9277 22.293 68.5215 22.293ZM88.4727 7.70312C87.9746 5.91602 86.5391 4.89062 84.459 4.89062C81.3535 4.89062 79.3613 7.23438 79.3613 11.3652C79.3613 15.5254 81.2363 17.8984 84.459 17.8984C87.2861 17.8984 88.8828 16.4189 88.9414 14.1191H84.6641V10.457H93.7461V13.2402C93.7461 18.8945 89.8496 22.293 84.4297 22.293C78.3652 22.293 74.2637 18.1328 74.2637 11.4238C74.2637 4.48047 78.7168 0.496094 84.3418 0.496094C89.2344 0.496094 93.0137 3.48438 93.541 7.70312H88.4727ZM110.709 7.70312C110.211 5.91602 108.775 4.89062 106.695 4.89062C103.59 4.89062 101.598 7.23438 101.598 11.3652C101.598 15.5254 103.473 17.8984 106.695 17.8984C109.522 17.8984 111.119 16.4189 111.178 14.1191H106.9V10.457H115.982V13.2402C115.982 18.8945 112.086 22.293 106.666 22.293C100.602 22.293 96.5 18.1328 96.5 11.4238C96.5 4.48047 100.953 0.496094 106.578 0.496094C111.471 0.496094 115.25 3.48438 115.777 7.70312H110.709Z" fill="#3685FF"/>
</svg>
